<?xml version="1.0" encoding="utf-8"?><svg xmlns="http://www.w3.org/2000/svg" xmlns:xlink="http://www.w3.org/1999/xlink" width="1536" height="738" preserveAspectRatio="xMidYMid" viewBox="0 0 1536 738" style="z-index:1;margin-right:-1.6px;display:block;background-color:rgb(153, 204, 255);animation-play-state:paused" ><g transform="translate(768,369) scale(1,1) translate(-768,-369)" style="transform:matrix(1, 0, 0, 1, 0, 0);animation-play-state:paused" ><defs style="animation-play-state:paused" ><linearGradient id="lg-0.9564885816511379" x1="0" x2="0" y1="0" y2="1" style="animation-play-state:paused" ><stop stop-color="#3184ce" offset="0" style="animation-play-state:paused" ></stop>

  
<stop stop-color="#e9f6ff" offset="1" style="animation-play-state:paused" ></stop></linearGradient></defs>


<rect x="0" y="0" width="1536" height="738" fill="url(#lg-0.9564885816511379)" style="animation-play-state:paused" ></rect>
<circle cx="0" cy="262.16817298573426" r="86.52652251188815" fill="#91cbf0" transform="matrix(1,0,0,1,0,0)" style="transform:matrix(1, 0, 0, 1, 0, 0);animation-play-state:paused" ></circle>
<circle cx="86.52652251188815" cy="274.87576174169635" r="85.57855061399907" fill="#91cbf0" transform="matrix(1,0,0,1,-0.005429744720458984,0)" style="transform:matrix(1, 0, 0, 1, -0.00542974, 0);animation-play-state:paused" ></circle>
<circle cx="172.1050731258872" cy="325.29573862054747" r="43.71698114549146" fill="#91cbf0" transform="matrix(1,0,0,1,-0.022117653861641884,0)" style="transform:matrix(1, 0, 0, 1, -0.0221177, 0);animation-play-state:paused" ></circle>
<circle cx="215.82205427137865" cy="288.3494181810803" r="90.00064698080652" fill="#91cbf0" transform="matrix(1,0,0,1,-0.05069183558225632,0)" style="transform:matrix(1, 0, 0, 1, -0.0506918, 0);animation-play-state:paused" ></circle>
<circle cx="305.8227012521852" cy="328.0329673655303" r="52.57484725427678" fill="#91cbf0" transform="matrix(1,0,0,1,-0.09182170033454895,0)" style="transform:matrix(1, 0, 0, 1, -0.0918217, 0);animation-play-state:paused" ></circle>
<circle cx="358.397548506462" cy="311.9899652283547" r="84.3901742477689" fill="#91cbf0" transform="matrix(1,0,0,1,-0.14621886610984802,0)" style="transform:matrix(1, 0, 0, 1, -0.146219, 0);animation-play-state:paused" ></circle>
<circle cx="442.7877227542309" cy="333.19696169873976" r="64.55458782369718" fill="#91cbf0" transform="matrix(1,0,0,1,-0.21463720500469208,0)" style="transform:matrix(1, 0, 0, 1, -0.214637, 0);animation-play-state:paused" ></circle>
<circle cx="507.34231057792806" cy="349.6067401275324" r="40.25082222450961" fill="#91cbf0" transform="matrix(1,0,0,1,-0.2978716492652893,0)" style="transform:matrix(1, 0, 0, 1, -0.297872, 0);animation-play-state:paused" ></circle>
<circle cx="547.5931328024377" cy="349.0208276272814" r="49.30277561996082" fill="#91cbf0" transform="matrix(1,0,0,1,-0.3967548906803131,0)" style="transform:matrix(1, 0, 0, 1, -0.396755, 0);animation-play-state:paused" ></circle>
<circle cx="596.8959084223985" cy="343.5195186798031" r="84.0862887162508" fill="#91cbf0" transform="matrix(1,0,0,1,-0.5121519565582275,0)" style="transform:matrix(1, 0, 0, 1, -0.512152, 0);animation-play-state:paused" ></circle>
<circle cx="680.9821971386493" cy="360.1318413644242" r="43.15923182699181" fill="#91cbf0" transform="matrix(1,0,0,1,-0.6449503302574158,0)" style="transform:matrix(1, 0, 0, 1, -0.64495, 0);animation-play-state:paused" ></circle>
<circle cx="724.1414289656411" cy="360.4869890855967" r="80.44783270421709" fill="#91cbf0" transform="matrix(1,0,0,1,-0.7960466146469116,0)" style="transform:matrix(1, 0, 0, 1, -0.796047, 0);animation-play-state:paused" ></circle>
<circle cx="804.5892616698582" cy="362.7682970286038" r="56.52723797368705" fill="#91cbf0" transform="matrix(1,0,0,1,-0.9663257002830505,0)" style="transform:matrix(1, 0, 0, 1, -0.966326, 0);animation-play-state:paused" ></circle>
<circle cx="861.1164996435452" cy="357.318140128707" r="59.6713830405748" fill="#91cbf0" transform="matrix(1,0,0,1,-1.156632423400879,0)" style="transform:matrix(1, 0, 0, 1, -1.15663, 0);animation-play-state:paused" ></circle>
<circle cx="920.7878826841201" cy="345.53703351529606" r="85.71555754382919" fill="#91cbf0" transform="matrix(1,0,0,1,-1.3677335977554321,0)" style="transform:matrix(1, 0, 0, 1, -1.36773, 0);animation-play-state:paused" ></circle>
<circle cx="1006.5034402279492" cy="351.30892232885316" r="39.422029722287334" fill="#91cbf0" transform="matrix(1,0,0,1,-1.600266933441162,0)" style="transform:matrix(1, 0, 0, 1, -1.60027, 0);animation-play-state:paused" ></circle>
<circle cx="1045.9254699502367" cy="332.5020353917075" r="77.13829665609936" fill="#91cbf0" transform="matrix(1,0,0,1,-1.8546782732009888,0)" style="transform:matrix(1, 0, 0, 1, -1.85468, 0);animation-play-state:paused" ></circle>
<circle cx="1123.063766606336" cy="320.07833502281346" r="82.77348563697387" fill="#91cbf0" transform="matrix(1,0,0,1,-2.131143569946289,0)" style="transform:matrix(1, 0, 0, 1, -2.13114, 0);animation-play-state:paused" ></circle>
<circle cx="1205.8372522433099" cy="308.316323219784" r="84.31798105388906" fill="#91cbf0" transform="matrix(1,0,0,1,-2.4294803142547607,0)" style="transform:matrix(1, 0, 0, 1, -2.42948, 0);animation-play-state:paused" ></circle>
<circle cx="1290.155233297199" cy="329.1382635830405" r="45.1810300892385" fill="#91cbf0" transform="matrix(1,0,0,1,-2.749046802520752,0)" style="transform:matrix(1, 0, 0, 1, -2.74905, 0);animation-play-state:paused" ></circle>
<circle cx="1335.3362633864374" cy="300.9571707893866" r="73.3734354407702" fill="#91cbf0" transform="matrix(1,0,0,1,-3.0886495113372803,0)" style="transform:matrix(1, 0, 0, 1, -3.08865, 0);animation-play-state:paused" ></circle>
<circle cx="1408.7096988272076" cy="319.42265849072317" r="46.52574890079273" fill="#91cbf0" transform="matrix(1,0,0,1,-3.446460723876953,0)" style="transform:matrix(1, 0, 0, 1, -3.44646, 0);animation-play-state:paused" ></circle>
<circle cx="1455.2354477280003" cy="289.9470536798806" r="70.82563305748016" fill="#91cbf0" transform="matrix(1,0,0,1,-3.819972276687622,0)" style="transform:matrix(1, 0, 0, 1, -3.81997, 0);animation-play-state:paused" ></circle>
<circle cx="1526.0610807854805" cy="312.33920798720897" r="45.30361439028258" fill="#91cbf0" transform="matrix(1,0,0,1,-4.205999374389648,0)" style="transform:matrix(1, 0, 0, 1, -4.206, 0);animation-play-state:paused" ></circle>
<circle cx="1571.364695175763" cy="270.96148538507543" r="75.71237536178297" fill="#91cbf0" transform="matrix(1,0,0,1,-4.60075569152832,0)" style="transform:matrix(1, 0, 0, 1, -4.60076, 0);animation-play-state:paused" ></circle>
<circle cx="0" cy="374.2176734792415" r="44.81860543396542" fill="#a8d1f5" transform="matrix(1,0,0,1,0,0)" style="transform:matrix(1, 0, 0, 1, 0, 0);animation-play-state:paused" ></circle>
<circle cx="44.81860543396542" cy="369.47887847738195" r="51.78993549322516" fill="#a8d1f5" transform="matrix(1,0,0,1,-0.022117653861641884,0)" style="transform:matrix(1, 0, 0, 1, -0.0221177, 0);animation-play-state:paused" ></circle>
<circle cx="96.60854092719057" cy="367.3518356601207" r="57.81250960672927" fill="#a8d1f5" transform="matrix(1,0,0,1,-0.09182170033454895,0)" style="transform:matrix(1, 0, 0, 1, -0.0918217, 0);animation-play-state:paused" ></circle>
<circle cx="154.42105053391984" cy="368.2651097529696" r="62.30710781614407" fill="#a8d1f5" transform="matrix(1,0,0,1,-0.21463720500469208,0)" style="transform:matrix(1, 0, 0, 1, -0.214637, 0);animation-play-state:paused" ></circle>
<circle cx="216.7281583500639" cy="398.9949882206834" r="33.67341869521875" fill="#a8d1f5" transform="matrix(1,0,0,1,-0.3967548906803131,0)" style="transform:matrix(1, 0, 0, 1, -0.396755, 0);animation-play-state:paused" ></circle>
<circle cx="250.40157704528264" cy="381.03875986557983" r="58.06662530859045" fill="#a8d1f5" transform="matrix(1,0,0,1,-0.6449503302574158,0)" style="transform:matrix(1, 0, 0, 1, -0.64495, 0);animation-play-state:paused" ></circle>
<circle cx="308.4682023538731" cy="365.76286626966913" r="86.67901936589192" fill="#a8d1f5" transform="matrix(1,0,0,1,-0.9663257002830505,0)" style="transform:matrix(1, 0, 0, 1, -0.966326, 0);animation-play-state:paused" ></circle>
<circle cx="395.147221719765" cy="375.7829918854499" r="89.63024319533038" fill="#a8d1f5" transform="matrix(1,0,0,1,-1.3677335977554321,0)" style="transform:matrix(1, 0, 0, 1, -1.36773, 0);animation-play-state:paused" ></circle>
<circle cx="484.7774649150954" cy="413.147331732911" r="33.56268133143901" fill="#a8d1f5" transform="matrix(1,0,0,1,-1.8546782732009888,0)" style="transform:matrix(1, 0, 0, 1, -1.85468, 0);animation-play-state:paused" ></circle>
<circle cx="518.3401462465343" cy="404.21044314387063" r="60.9842397927442" fill="#a8d1f5" transform="matrix(1,0,0,1,-2.4294803142547607,0)" style="transform:matrix(1, 0, 0, 1, -2.42948, 0);animation-play-state:paused" ></circle>
<circle cx="579.3243860392786" cy="410.1885199440409" r="60.41770314942226" fill="#a8d1f5" transform="matrix(1,0,0,1,-3.0886495113372803,0)" style="transform:matrix(1, 0, 0, 1, -3.08865, 0);animation-play-state:paused" ></circle>
<circle cx="639.7420891887008" cy="412.3728363093568" r="77.97869697664353" fill="#a8d1f5" transform="matrix(1,0,0,1,-3.819972276687622,0)" style="transform:matrix(1, 0, 0, 1, -3.81997, 0);animation-play-state:paused" ></circle>
<circle cx="717.7207861653443" cy="422.23008417731455" r="73.44478652077534" fill="#a8d1f5" transform="matrix(1,0,0,1,-4.60075569152832,0)" style="transform:matrix(1, 0, 0, 1, -4.60076, 0);animation-play-state:paused" ></circle>
<circle cx="791.1655726861196" cy="426.3798695101902" r="44.75967538240805" fill="#a8d1f5" transform="matrix(1,0,0,1,-5.399243354797363,0)" style="transform:matrix(1, 0, 0, 1, -5.39924, 0);animation-play-state:paused" ></circle>
<circle cx="835.9252480685277" cy="423.19091067723826" r="45.31182813587088" fill="#a8d1f5" transform="matrix(1,0,0,1,-6.180027961730957,0)" style="transform:matrix(1, 0, 0, 1, -6.18003, 0);animation-play-state:paused" ></circle>
<circle cx="881.2370762043986" cy="412.72370645887275" r="86.33945871821857" fill="#a8d1f5" transform="matrix(1,0,0,1,-6.911351203918457,0)" style="transform:matrix(1, 0, 0, 1, -6.91135, 0);animation-play-state:paused" ></circle>
<circle cx="967.5765349226172" cy="411.06796028589815" r="54.29749254453622" fill="#a8d1f5" transform="matrix(1,0,0,1,-7.57051944732666,0)" style="transform:matrix(1, 0, 0, 1, -7.57052, 0);animation-play-state:paused" ></circle>
<circle cx="1021.8740274671534" cy="408.89408972856046" r="48.16476382288985" fill="#a8d1f5" transform="matrix(1,0,0,1,-8.1453218460083,0)" style="transform:matrix(1, 0, 0, 1, -8.14532, 0);animation-play-state:paused" ></circle>
<circle cx="1070.0387912900433" cy="412.498683991575" r="32.84625197650577" fill="#a8d1f5" transform="matrix(1,0,0,1,-8.632266998291016,0)" style="transform:matrix(1, 0, 0, 1, -8.63227, 0);animation-play-state:paused" ></circle>
<circle cx="1102.885043266549" cy="392.3860203751182" r="68.06200341943155" fill="#a8d1f5" transform="matrix(1,0,0,1,-9.033674240112305,0)" style="transform:matrix(1, 0, 0, 1, -9.03367, 0);animation-play-state:paused" ></circle>
<circle cx="1170.9470466859805" cy="372.02461895912387" r="88.90558737381396" fill="#a8d1f5" transform="matrix(1,0,0,1,-9.355050086975098,0)" style="transform:matrix(1, 0, 0, 1, -9.35505, 0);animation-play-state:paused" ></circle>
<circle cx="1259.8526340597944" cy="365.99517796236785" r="80.68084494442358" fill="#a8d1f5" transform="matrix(1,0,0,1,-9.60324478149414,0)" style="transform:matrix(1, 0, 0, 1, -9.60324, 0);animation-play-state:paused" ></circle>
<circle cx="1340.533479004218" cy="358.678352126536" r="77.49041106937625" fill="#a8d1f5" transform="matrix(1,0,0,1,-9.785362243652344,0)" style="transform:matrix(1, 0, 0, 1, -9.78536, 0);animation-play-state:paused" ></circle>
<circle cx="1418.0238900735942" cy="375.7619453202783" r="51.43250195194632" fill="#a8d1f5" transform="matrix(1,0,0,1,-9.908178329467773,0)" style="transform:matrix(1, 0, 0, 1, -9.90818, 0);animation-play-state:paused" ></circle>
<circle cx="1469.4563920255405" cy="384.83323211450033" r="39.38481673385887" fill="#a8d1f5" transform="matrix(1,0,0,1,-9.977882385253906,0)" style="transform:matrix(1, 0, 0, 1, -9.97788, 0);animation-play-state:paused" ></circle>
<circle cx="1508.8412087593993" cy="351.35019830777424" r="66.21644760443692" fill="#a8d1f5" transform="matrix(1,0,0,1,-10,0)" style="transform:matrix(1, 0, 0, 1, -10, 0);animation-play-state:paused" ></circle>
<circle cx="1575.0576563638363" cy="332.97314299494815" r="75.356683631802" fill="#a8d1f5" transform="matrix(1,0,0,1,-9.977882385253906,0)" style="transform:matrix(1, 0, 0, 1, -9.97788, 0);animation-play-state:paused" ></circle>
<circle cx="0" cy="449.6753096915469" r="33.603908590377586" fill="#bdd7f8" transform="matrix(1,0,0,1,0,0)" style="transform:matrix(1, 0, 0, 1, 0, 0);animation-play-state:paused" ></circle>
<circle cx="33.603908590377586" cy="425.5180292394015" r="56.19373764308993" fill="#bdd7f8" transform="matrix(1,0,0,1,-0.05069185048341751,0)" style="transform:matrix(1, 0, 0, 1, -0.0506918, 0);animation-play-state:paused" ></circle>
<circle cx="89.79764623346752" cy="456.65149257910764" r="31.47002458903046" fill="#bdd7f8" transform="matrix(1,0,0,1,-0.21463724970817566,0)" style="transform:matrix(1, 0, 0, 1, -0.214637, 0);animation-play-state:paused" ></circle>
<circle cx="121.26767082249798" cy="457.3197154925974" r="32.34009054617283" fill="#bdd7f8" transform="matrix(1,0,0,1,-0.5121520161628723,0)" style="transform:matrix(1, 0, 0, 1, -0.512152, 0);animation-play-state:paused" ></circle>
<circle cx="153.60776136867082" cy="421.82420515625716" r="71.01735008436107" fill="#bdd7f8" transform="matrix(1,0,0,1,-0.9663259983062744,0)" style="transform:matrix(1, 0, 0, 1, -0.966326, 0);animation-play-state:paused" ></circle>
<circle cx="224.62511145303188" cy="455.7814864356558" r="40.30338748215327" fill="#bdd7f8" transform="matrix(1,0,0,1,-1.6002674102783203,0)" style="transform:matrix(1, 0, 0, 1, -1.60027, 0);animation-play-state:paused" ></circle>
<circle cx="264.92849893518513" cy="419.2245359067422" r="90.03948131390791" fill="#bdd7f8" transform="matrix(1,0,0,1,-2.429480791091919,0)" style="transform:matrix(1, 0, 0, 1, -2.42948, 0);animation-play-state:paused" ></circle>
<circle cx="354.96798024909305" cy="452.1631480238408" r="58.628832891323874" fill="#bdd7f8" transform="matrix(1,0,0,1,-3.4464619159698486,0)" style="transform:matrix(1, 0, 0, 1, -3.44646, 0);animation-play-state:paused" ></circle>
<circle cx="413.59681314041694" cy="441.78435680883575" r="87.07035598574137" fill="#bdd7f8" transform="matrix(1,0,0,1,-4.600757122039795,0)" style="transform:matrix(1, 0, 0, 1, -4.60076, 0);animation-play-state:paused" ></circle>
<circle cx="500.66716912615834" cy="469.79689807026347" r="48.366619216826464" fill="#bdd7f8" transform="matrix(1,0,0,1,-5.794002532958984,0)" style="transform:matrix(1, 0, 0, 1, -5.794, 0);animation-play-state:paused" ></circle>
<circle cx="549.0337883429848" cy="463.6732042640766" r="76.94862665561928" fill="#bdd7f8" transform="matrix(1,0,0,1,-6.911351680755615,0)" style="transform:matrix(1, 0, 0, 1, -6.91135, 0);animation-play-state:paused" ></circle>
<circle cx="625.9824149986041" cy="479.34240858609814" r="48.02826709685375" fill="#bdd7f8" transform="matrix(1,0,0,1,-7.868857383728027,0)" style="transform:matrix(1, 0, 0, 1, -7.86886, 0);animation-play-state:paused" ></circle>
<circle cx="674.0106820954578" cy="484.8196047673837" r="35.27478465416339" fill="#bdd7f8" transform="matrix(1,0,0,1,-8.632266998291016,0)" style="transform:matrix(1, 0, 0, 1, -8.63227, 0);animation-play-state:paused" ></circle>
<circle cx="709.2854667496212" cy="484.81155271381346" r="56.555099382280346" fill="#bdd7f8" transform="matrix(1,0,0,1,-9.203954696655273,0)" style="transform:matrix(1, 0, 0, 1, -9.20396, 0);animation-play-state:paused" ></circle>
<circle cx="765.8405661319015" cy="489.71211591912027" r="85.32134949113605" fill="#bdd7f8" transform="matrix(1,0,0,1,-9.603245735168457,0)" style="transform:matrix(1, 0, 0, 1, -9.60325, 0);animation-play-state:paused" ></circle>
<circle cx="851.1619156230375" cy="483.38114697204725" r="50.93757047506341" fill="#bdd7f8" transform="matrix(1,0,0,1,-9.853781700134277,0)" style="transform:matrix(1, 0, 0, 1, -9.85378, 0);animation-play-state:paused" ></circle>
<circle cx="902.0994860981009" cy="474.7773099139141" r="72.65144661306014" fill="#bdd7f8" transform="matrix(1,0,0,1,-9.977882385253906,0)" style="transform:matrix(1, 0, 0, 1, -9.97788, 0);animation-play-state:paused" ></circle>
<circle cx="974.750932711161" cy="479.9147248738698" r="31.21909050703355" fill="#bdd7f8" transform="matrix(1,0,0,1,-9.994569778442383,0)" style="transform:matrix(1, 0, 0, 1, -9.99457, 0);animation-play-state:paused" ></circle>
<circle cx="1005.9700232181946" cy="461.23042371525656" r="77.37331187026601" fill="#bdd7f8" transform="matrix(1,0,0,1,-9.908178329467773,0)" style="transform:matrix(1, 0, 0, 1, -9.90818, 0);animation-play-state:paused" ></circle>
<circle cx="1083.3433350884607" cy="448.5567307440176" r="84.11052136677712" fill="#bdd7f8" transform="matrix(1,0,0,1,-9.702127456665039,0)" style="transform:matrix(1, 0, 0, 1, -9.70213, 0);animation-play-state:paused" ></circle>
<circle cx="1167.4538564552379" cy="464.4292190883526" r="40.969187101309636" fill="#bdd7f8" transform="matrix(1,0,0,1,-9.355048179626465,0)" style="transform:matrix(1, 0, 0, 1, -9.35505, 0);animation-play-state:paused" ></circle>
<circle cx="1208.4230435565476" cy="467.7105322240916" r="32.389902357027346" fill="#bdd7f8" transform="matrix(1,0,0,1,-8.843366622924805,0)" style="transform:matrix(1, 0, 0, 1, -8.84337, 0);animation-play-state:paused" ></circle>
<circle cx="1240.8129459135748" cy="434.20698654970215" r="75.52146978377694" fill="#bdd7f8" transform="matrix(1,0,0,1,-8.145318984985352,0)" style="transform:matrix(1, 0, 0, 1, -8.14532, 0);animation-play-state:paused" ></circle>
<circle cx="1316.3344156973517" cy="462.8305679696498" r="31.71137174986577" fill="#bdd7f8" transform="matrix(1,0,0,1,-7.250951766967773,0)" style="transform:matrix(1, 0, 0, 1, -7.25095, 0);animation-play-state:paused" ></circle>
<circle cx="1348.0457874472174" cy="418.73913031917596" r="78.62647670702636" fill="#bdd7f8" transform="matrix(1,0,0,1,-6.180024147033691,0)" style="transform:matrix(1, 0, 0, 1, -6.18002, 0);animation-play-state:paused" ></circle>
<circle cx="1426.6722641542437" cy="412.5870628901348" r="75.21840898209092" fill="#bdd7f8" transform="matrix(1,0,0,1,-4.999997615814209,0)" style="transform:matrix(1, 0, 0, 1, -5, 0);animation-play-state:paused" ></circle>
<circle cx="1501.8906731363347" cy="418.67829773477285" r="62.19712434097899" fill="#bdd7f8" transform="matrix(1,0,0,1,-3.8199687004089355,0)" style="transform:matrix(1, 0, 0, 1, -3.81997, 0);animation-play-state:paused" ></circle>
<circle cx="1564.0877974773136" cy="417.55408199657046" r="58.241550327891055" fill="#bdd7f8" transform="matrix(1,0,0,1,-2.749044418334961,0)" style="transform:matrix(1, 0, 0, 1, -2.74904, 0);animation-play-state:paused" ></circle>
<circle cx="0" cy="475.7768656739551" r="63.519278605037414" fill="#cfddfa" transform="matrix(1,0,0,1,0,0)" style="transform:matrix(1, 0, 0, 1, 0, 0);animation-play-state:paused" ></circle>
<circle cx="63.519278605037414" cy="503.2764667509412" r="44.26389584891855" fill="#cfddfa" transform="matrix(1,0,0,1,-0.09182170033454895,0)" style="transform:matrix(1, 0, 0, 1, -0.0918217, 0);animation-play-state:paused" ></circle>
<circle cx="107.78317445395597" cy="517.6850762204335" r="33.26414954777747" fill="#cfddfa" transform="matrix(1,0,0,1,-0.3967548906803131,0)" style="transform:matrix(1, 0, 0, 1, -0.396755, 0);animation-play-state:paused" ></circle>
<circle cx="141.04732400173344" cy="490.03707811654357" r="63.25241365669164" fill="#cfddfa" transform="matrix(1,0,0,1,-0.9663257002830505,0)" style="transform:matrix(1, 0, 0, 1, -0.966326, 0);animation-play-state:paused" ></circle>
<circle cx="204.29973765842507" cy="482.27635333188044" r="79.16110182783109" fill="#cfddfa" transform="matrix(1,0,0,1,-1.8546782732009888,0)" style="transform:matrix(1, 0, 0, 1, -1.85468, 0);animation-play-state:paused" ></circle>
<circle cx="283.4608394862562" cy="505.71150620430444" r="61.13981787939485" fill="#cfddfa" transform="matrix(1,0,0,1,-3.0886495113372803,0)" style="transform:matrix(1, 0, 0, 1, -3.08865, 0);animation-play-state:paused" ></circle>
<circle cx="344.60065736565105" cy="526.5625130864319" r="38.45067761180522" fill="#cfddfa" transform="matrix(1,0,0,1,-4.60075569152832,0)" style="transform:matrix(1, 0, 0, 1, -4.60076, 0);animation-play-state:paused" ></circle>
<circle cx="383.05133497745624" cy="509.0158459538767" r="71.46370695403724" fill="#cfddfa" transform="matrix(1,0,0,1,-6.180027961730957,0)" style="transform:matrix(1, 0, 0, 1, -6.18003, 0);animation-play-state:paused" ></circle>
<circle cx="454.51504193149344" cy="524.8341900337249" r="55.46077389338941" fill="#cfddfa" transform="matrix(1,0,0,1,-7.57051944732666,0)" style="transform:matrix(1, 0, 0, 1, -7.57052, 0);animation-play-state:paused" ></circle>
<circle cx="509.97581582488283" cy="515.8639870558998" r="89.63132025069451" fill="#cfddfa" transform="matrix(1,0,0,1,-8.632266998291016,0)" style="transform:matrix(1, 0, 0, 1, -8.63227, 0);animation-play-state:paused" ></circle>
<circle cx="599.6071360755774" cy="530.2268143914837" r="82.75195554429564" fill="#cfddfa" transform="matrix(1,0,0,1,-9.355050086975098,0)" style="transform:matrix(1, 0, 0, 1, -9.35505, 0);animation-play-state:paused" ></circle>
<circle cx="682.359091619873" cy="545.9297760735585" r="45.363172652008345" fill="#cfddfa" transform="matrix(1,0,0,1,-9.785362243652344,0)" style="transform:matrix(1, 0, 0, 1, -9.78536, 0);animation-play-state:paused" ></circle>
<circle cx="727.7222642718813" cy="546.6466249784985" r="85.06337190571156" fill="#cfddfa" transform="matrix(1,0,0,1,-9.977882385253906,0)" style="transform:matrix(1, 0, 0, 1, -9.97788, 0);animation-play-state:paused" ></circle>
<circle cx="812.7856361775928" cy="546.1473908829684" r="83.63551697797025" fill="#cfddfa" transform="matrix(1,0,0,1,-9.977882385253906,0)" style="transform:matrix(1, 0, 0, 1, -9.97788, 0);animation-play-state:paused" ></circle>
<circle cx="896.421153155563" cy="542.5340206505874" r="47.174679830864314" fill="#cfddfa" transform="matrix(1,0,0,1,-9.78536319732666,0)" style="transform:matrix(1, 0, 0, 1, -9.78536, 0);animation-play-state:paused" ></circle>
<circle cx="943.5958329864274" cy="527.7288097544163" r="88.46201810708257" fill="#cfddfa" transform="matrix(1,0,0,1,-9.355049133300781,0)" style="transform:matrix(1, 0, 0, 1, -9.35505, 0);animation-play-state:paused" ></circle>
<circle cx="1032.05785109351" cy="530.790086915641" r="51.40670621144563" fill="#cfddfa" transform="matrix(1,0,0,1,-8.632266998291016,0)" style="transform:matrix(1, 0, 0, 1, -8.63227, 0);animation-play-state:paused" ></circle>
<circle cx="1083.4645573049556" cy="508.2161305340863" r="88.82670274460203" fill="#cfddfa" transform="matrix(1,0,0,1,-7.57051944732666,0)" style="transform:matrix(1, 0, 0, 1, -7.57052, 0);animation-play-state:paused" ></circle>
<circle cx="1172.2912600495576" cy="529.0939670747471" r="36.26064305808861" fill="#cfddfa" transform="matrix(1,0,0,1,-6.180026531219482,0)" style="transform:matrix(1, 0, 0, 1, -6.18003, 0);animation-play-state:paused" ></circle>
<circle cx="1208.5519031076462" cy="527.6854984560886" r="35.322242120245754" fill="#cfddfa" transform="matrix(1,0,0,1,-4.600756645202637,0)" style="transform:matrix(1, 0, 0, 1, -4.60076, 0);animation-play-state:paused" ></circle>
<circle cx="1243.874145227892" cy="523.422752731738" r="38.43335141254427" fill="#cfddfa" transform="matrix(1,0,0,1,-3.088648796081543,0)" style="transform:matrix(1, 0, 0, 1, -3.08865, 0);animation-play-state:paused" ></circle>
<circle cx="1282.3074966404363" cy="487.62060175839724" r="80.11319131797835" fill="#cfddfa" transform="matrix(1,0,0,1,-1.8546791076660156,0)" style="transform:matrix(1, 0, 0, 1, -1.85468, 0);animation-play-state:paused" ></circle>
<circle cx="1362.4206879584146" cy="499.3647975057251" r="56.671193110783214" fill="#cfddfa" transform="matrix(1,0,0,1,-0.9663257598876953,0)" style="transform:matrix(1, 0, 0, 1, -0.966326, 0);animation-play-state:paused" ></circle>
<circle cx="1419.0918810691978" cy="487.1299266887737" r="63.76495871981613" fill="#cfddfa" transform="matrix(1,0,0,1,-0.3967552185058594,0)" style="transform:matrix(1, 0, 0, 1, -0.396755, 0);animation-play-state:paused" ></circle>
<circle cx="1482.856839789014" cy="481.60661016963275" r="63.02208635890208" fill="#cfddfa" transform="matrix(1,0,0,1,-0.09182167053222656,0)" style="transform:matrix(1, 0, 0, 1, -0.0918217, 0);animation-play-state:paused" ></circle>
<circle cx="1545.878926147916" cy="512.4416979072013" r="32.54659881938619" fill="#cfddfa" transform="matrix(1,0,0,1,0,0)" style="transform:matrix(1, 0, 0, 1, 0, 0);animation-play-state:paused" ></circle>
<circle cx="1578.4255249673022" cy="500.2748248743367" r="40.84781520394508" fill="#cfddfa" transform="matrix(1,0,0,1,-0.09182170033454895,0)" style="transform:matrix(1, 0, 0, 1, -0.0918217, 0);animation-play-state:paused" ></circle>
<circle cx="0" cy="531.347404596478" r="68.87716283626837" fill="#dfe5fb" transform="matrix(1,0,0,1,0,0)" style="transform:matrix(1, 0, 0, 1, 0, 0);animation-play-state:paused" ></circle>
<circle cx="68.87716283626837" cy="532.1184516269198" r="74.9570578632071" fill="#dfe5fb" transform="matrix(1,0,0,1,-0.14621886610984802,0)" style="transform:matrix(1, 0, 0, 1, -0.146219, 0);animation-play-state:paused" ></circle>
<circle cx="143.83422069947545" cy="576.9388644098756" r="38.001325231672574" fill="#dfe5fb" transform="matrix(1,0,0,1,-0.6449503302574158,0)" style="transform:matrix(1, 0, 0, 1, -0.64495, 0);animation-play-state:paused" ></circle>
<circle cx="181.83554593114803" cy="541.6530743737537" r="78.99153911396839" fill="#dfe5fb" transform="matrix(1,0,0,1,-1.600266933441162,0)" style="transform:matrix(1, 0, 0, 1, -1.60027, 0);animation-play-state:paused" ></circle>
<circle cx="260.8270850451164" cy="565.0525969707306" r="61.766582983870684" fill="#dfe5fb" transform="matrix(1,0,0,1,-3.0886495113372803,0)" style="transform:matrix(1, 0, 0, 1, -3.08865, 0);animation-play-state:paused" ></circle>
<circle cx="322.5936680289871" cy="552.0149446523955" r="89.06571949015006" fill="#dfe5fb" transform="matrix(1,0,0,1,-5,0)" style="transform:matrix(1, 0, 0, 1, -5, 0);animation-play-state:paused" ></circle>
<circle cx="411.65938751913717" cy="575.7461769082344" r="68.70518240478374" fill="#dfe5fb" transform="matrix(1,0,0,1,-6.911351203918457,0)" style="transform:matrix(1, 0, 0, 1, -6.91135, 0);animation-play-state:paused" ></circle>
<circle cx="480.3645699239209" cy="572.206917648053" r="92.99123094179104" fill="#dfe5fb" transform="matrix(1,0,0,1,-8.39973258972168,0)" style="transform:matrix(1, 0, 0, 1, -8.39973, 0);animation-play-state:paused" ></circle>
<circle cx="573.3558008657119" cy="604.24980011424" r="32.059151799233774" fill="#dfe5fb" transform="matrix(1,0,0,1,-9.355050086975098,0)" style="transform:matrix(1, 0, 0, 1, -9.35505, 0);animation-play-state:paused" ></circle>
<circle cx="605.4149526649456" cy="599.1909771982346" r="58.294257365489116" fill="#dfe5fb" transform="matrix(1,0,0,1,-9.853780746459961,0)" style="transform:matrix(1, 0, 0, 1, -9.85378, 0);animation-play-state:paused" ></circle>
<circle cx="663.7092100304347" cy="600.7472866013828" r="81.32776228457186" fill="#dfe5fb" transform="matrix(1,0,0,1,-10,0)" style="transform:matrix(1, 0, 0, 1, -10, 0);animation-play-state:paused" ></circle>
<circle cx="745.0369723150066" cy="612.7843031441404" r="33.88255235430636" fill="#dfe5fb" transform="matrix(1,0,0,1,-9.853780746459961,0)" style="transform:matrix(1, 0, 0, 1, -9.85378, 0);animation-play-state:paused" ></circle>
<circle cx="778.9195246693129" cy="612.51186685556" r="87.22039111446892" fill="#dfe5fb" transform="matrix(1,0,0,1,-9.355049133300781,0)" style="transform:matrix(1, 0, 0, 1, -9.35505, 0);animation-play-state:paused" ></circle>
<circle cx="866.1399157837818" cy="603.55939438154" r="68.08633920713716" fill="#dfe5fb" transform="matrix(1,0,0,1,-8.399733543395996,0)" style="transform:matrix(1, 0, 0, 1, -8.39973, 0);animation-play-state:paused" ></circle>
<circle cx="934.226254990919" cy="600.4327140970812" r="52.236411019079895" fill="#dfe5fb" transform="matrix(1,0,0,1,-6.911350727081299,0)" style="transform:matrix(1, 0, 0, 1, -6.91135, 0);animation-play-state:paused" ></circle>
<circle cx="986.4626660099989" cy="593.7011947986299" r="59.46661535423281" fill="#dfe5fb" transform="matrix(1,0,0,1,-5,0)" style="transform:matrix(1, 0, 0, 1, -5, 0);animation-play-state:paused" ></circle>
<circle cx="1045.9292813642317" cy="577.088306826287" r="84.99818196635904" fill="#dfe5fb" transform="matrix(1,0,0,1,-3.088648796081543,0)" style="transform:matrix(1, 0, 0, 1, -3.08865, 0);animation-play-state:paused" ></circle>
<circle cx="1130.9274633305906" cy="582.2117942172362" r="56.056523015005645" fill="#dfe5fb" transform="matrix(1,0,0,1,-1.600266456604004,0)" style="transform:matrix(1, 0, 0, 1, -1.60027, 0);animation-play-state:paused" ></circle>
<circle cx="1186.9839863455963" cy="569.5583108308343" r="67.88488819428349" fill="#dfe5fb" transform="matrix(1,0,0,1,-0.6449508666992188,0)" style="transform:matrix(1, 0, 0, 1, -0.644951, 0);animation-play-state:paused" ></circle>
<circle cx="1254.86887453988" cy="561.4613401723077" r="69.0632407370474" fill="#dfe5fb" transform="matrix(1,0,0,1,-0.14621925354003906,0)" style="transform:matrix(1, 0, 0, 1, -0.146219, 0);animation-play-state:paused" ></circle>
<circle cx="1323.9321152769273" cy="561.7387748126077" r="60.1641517027127" fill="#dfe5fb" transform="matrix(1,0,0,1,0,0)" style="transform:matrix(1, 0, 0, 1, 0, 0);animation-play-state:paused" ></circle>
<circle cx="1384.09626697964" cy="540.976159904845" r="75.85707001604617" fill="#dfe5fb" transform="matrix(1,0,0,1,-0.14621886610984802,0)" style="transform:matrix(1, 0, 0, 1, -0.146219, 0);animation-play-state:paused" ></circle>
<circle cx="1459.9533369956862" cy="550.9070186630048" r="58.35582530896685" fill="#dfe5fb" transform="matrix(1,0,0,1,-0.6449503302574158,0)" style="transform:matrix(1, 0, 0, 1, -0.64495, 0);animation-play-state:paused" ></circle>
<circle cx="1518.309162304653" cy="506.0118168623484" r="92.11194622202262" fill="#dfe5fb" transform="matrix(1,0,0,1,-1.600266933441162,0)" style="transform:matrix(1, 0, 0, 1, -1.60027, 0);animation-play-state:paused" ></circle>
<circle cx="1610.4211085266757" cy="568.8003982479686" r="34.33881799554185" fill="#dfe5fb" transform="matrix(1,0,0,1,-3.0886495113372803,0)" style="transform:matrix(1, 0, 0, 1, -3.08865, 0);animation-play-state:paused" ></circle>
<circle cx="0" cy="569.491719471233" r="88.7569004406392" fill="#ecedfc" transform="matrix(1,0,0,1,0,0)" style="transform:matrix(1, 0, 0, 1, 0, 0);animation-play-state:paused" ></circle>
<circle cx="88.7569004406392" cy="638.0824067934894" r="35.72691377786456" fill="#ecedfc" transform="matrix(1,0,0,1,-0.2146373838186264,0)" style="transform:matrix(1, 0, 0, 1, -0.214637, 0);animation-play-state:paused" ></circle>
<circle cx="124.48381421850377" cy="639.7728949813746" r="36.02915936568645" fill="#ecedfc" transform="matrix(1,0,0,1,-0.9663266539573669,0)" style="transform:matrix(1, 0, 0, 1, -0.966327, 0);animation-play-state:paused" ></circle>
<circle cx="160.5129735841902" cy="618.3601177116306" r="60.724794210348286" fill="#ecedfc" transform="matrix(1,0,0,1,-2.4294822216033936,0)" style="transform:matrix(1, 0, 0, 1, -2.42948, 0);animation-play-state:paused" ></circle>
<circle cx="221.23776779453848" cy="610.9461864038495" r="76.14725057653752" fill="#ecedfc" transform="matrix(1,0,0,1,-4.600759983062744,0)" style="transform:matrix(1, 0, 0, 1, -4.60076, 0);animation-play-state:paused" ></circle>
<circle cx="297.385018371076" cy="629.7437672310948" r="62.90490130516455" fill="#ecedfc" transform="matrix(1,0,0,1,-6.911355018615723,0)" style="transform:matrix(1, 0, 0, 1, -6.91135, 0);animation-play-state:paused" ></circle>
<circle cx="360.2899196762406" cy="643.6943537640582" r="50.711558503985074" fill="#ecedfc" transform="matrix(1,0,0,1,-8.632269859313965,0)" style="transform:matrix(1, 0, 0, 1, -8.63227, 0);animation-play-state:paused" ></circle>
<circle cx="411.00147818022566" cy="638.4477991485819" r="67.32075086025299" fill="#ecedfc" transform="matrix(1,0,0,1,-9.603246688842773,0)" style="transform:matrix(1, 0, 0, 1, -9.60325, 0);animation-play-state:paused" ></circle>
<circle cx="478.32222904047865" cy="656.8708917429111" r="42.26292284694375" fill="#ecedfc" transform="matrix(1,0,0,1,-9.977882385253906,0)" style="transform:matrix(1, 0, 0, 1, -9.97788, 0);animation-play-state:paused" ></circle>
<circle cx="520.5851518874224" cy="661.5905399717094" r="37.27364985754533" fill="#ecedfc" transform="matrix(1,0,0,1,-9.908177375793457,0)" style="transform:matrix(1, 0, 0, 1, -9.90818, 0);animation-play-state:paused" ></circle>
<circle cx="557.8588017449678" cy="661.3561315386842" r="44.59894534277822" fill="#ecedfc" transform="matrix(1,0,0,1,-9.355046272277832,0)" style="transform:matrix(1, 0, 0, 1, -9.35505, 0);animation-play-state:paused" ></circle>
<circle cx="602.4577470877459" cy="660.2714394285863" r="60.80791211075517" fill="#ecedfc" transform="matrix(1,0,0,1,-8.14531421661377,0)" style="transform:matrix(1, 0, 0, 1, -8.14531, 0);animation-play-state:paused" ></circle>
<circle cx="663.2656591985011" cy="661.6411333713833" r="87.74270761613654" fill="#ecedfc" transform="matrix(1,0,0,1,-6.180017471313477,0)" style="transform:matrix(1, 0, 0, 1, -6.18002, 0);animation-play-state:paused" ></circle>
<circle cx="751.0083668146376" cy="674.6824933336793" r="49.624674523437506" fill="#ecedfc" transform="matrix(1,0,0,1,-3.8199596405029297,0)" style="transform:matrix(1, 0, 0, 1, -3.81996, 0);animation-play-state:paused" ></circle>
<circle cx="800.6330413380751" cy="672.4260303881595" r="70.09277890716103" fill="#ecedfc" transform="matrix(1,0,0,1,-1.8546695709228516,0)" style="transform:matrix(1, 0, 0, 1, -1.85467, 0);animation-play-state:paused" ></circle>
<circle cx="870.7258202452362" cy="661.7875608314098" r="88.54600572848238" fill="#ecedfc" transform="matrix(1,0,0,1,-0.6449451446533203,0)" style="transform:matrix(1, 0, 0, 1, -0.644945, 0);animation-play-state:paused" ></circle>
<circle cx="959.2718259737185" cy="660.4758558022339" r="51.94414930683758" fill="#ecedfc" transform="matrix(1,0,0,1,-0.09181976318359375,0)" style="transform:matrix(1, 0, 0, 1, -0.0918198, 0);animation-play-state:paused" ></circle>
<circle cx="1011.2159752805561" cy="651.9009907581766" r="63.41427982670847" fill="#ecedfc" transform="matrix(1,0,0,1,-0.022118574008345604,0)" style="transform:matrix(1, 0, 0, 1, -0.0221186, 0);animation-play-state:paused" ></circle>
<circle cx="1074.6302551072645" cy="657.0179157205303" r="39.61948873770093" fill="#ecedfc" transform="matrix(1,0,0,1,-0.3967595100402832,0)" style="transform:matrix(1, 0, 0, 1, -0.39676, 0);animation-play-state:paused" ></circle>
<circle cx="1114.2497438449655" cy="634.1008055839194" r="77.44549968042242" fill="#ecedfc" transform="matrix(1,0,0,1,-1.367743968963623,0)" style="transform:matrix(1, 0, 0, 1, -1.36774, 0);animation-play-state:paused" ></circle>
<circle cx="1191.695243525388" cy="620.3059060056167" r="84.12702455619967" fill="#ecedfc" transform="matrix(1,0,0,1,-3.0886662006378174,0)" style="transform:matrix(1, 0, 0, 1, -3.08867, 0);animation-play-state:paused" ></circle>
<circle cx="1275.8222680815875" cy="623.1433071941996" r="66.61441516439635" fill="#ecedfc" transform="matrix(1,0,0,1,-5.399263381958008,0)" style="transform:matrix(1, 0, 0, 1, -5.39926, 0);animation-play-state:paused" ></circle>
<circle cx="1342.4366832459839" cy="636.9359248686876" r="43.52265238836434" fill="#ecedfc" transform="matrix(1,0,0,1,-7.570536136627197,0)" style="transform:matrix(1, 0, 0, 1, -7.57054, 0);animation-play-state:paused" ></circle>
<circle cx="1385.9593356343482" cy="600.5115250054338" r="78.18091128428132" fill="#ecedfc" transform="matrix(1,0,0,1,-9.033683776855469,0)" style="transform:matrix(1, 0, 0, 1, -9.03368, 0);animation-play-state:paused" ></circle>
<circle cx="1464.1402469186296" cy="605.8988317627517" r="64.44785784247735" fill="#ecedfc" transform="matrix(1,0,0,1,-9.785367012023926,0)" style="transform:matrix(1, 0, 0, 1, -9.78537, 0);animation-play-state:paused" ></circle>
<circle cx="1528.588104761107" cy="592.2079568378915" r="70.50716056175123" fill="#ecedfc" transform="matrix(1,0,0,1,-10,0)" style="transform:matrix(1, 0, 0, 1, -10, 0);animation-play-state:paused" ></circle>
<circle cx="0" cy="677.0644034072221" r="50.779663827314934" fill="#f7f5fd" transform="matrix(1,0,0,1,0,0)" style="transform:matrix(1, 0, 0, 1, 0, 0);animation-play-state:paused" ></circle>
<circle cx="50.779663827314934" cy="646.7182742180876" r="81.45377585383764" fill="#f7f5fd" transform="matrix(1,0,0,1,-0.297871857881546,0)" style="transform:matrix(1, 0, 0, 1, -0.297872, 0);animation-play-state:paused" ></circle>
<circle cx="132.23343968115256" cy="695.1013508316912" r="43.18430251183462" fill="#f7f5fd" transform="matrix(1,0,0,1,-1.3677345514297485,0)" style="transform:matrix(1, 0, 0, 1, -1.36773, 0);animation-play-state:paused" ></circle>
<circle cx="175.4177421929872" cy="675.5590551979759" r="67.4373964910539" fill="#f7f5fd" transform="matrix(1,0,0,1,-3.4464633464813232,0)" style="transform:matrix(1, 0, 0, 1, -3.44646, 0);animation-play-state:paused" ></circle>
<circle cx="242.8551386840411" cy="672.6160250047894" r="79.68419207620852" fill="#f7f5fd" transform="matrix(1,0,0,1,-6.1800312995910645,0)" style="transform:matrix(1, 0, 0, 1, -6.18003, 0);animation-play-state:paused" ></circle>
<circle cx="322.53933076024964" cy="673.9848614672643" r="91.9715061059647" fill="#f7f5fd" transform="matrix(1,0,0,1,-8.399735450744629,0)" style="transform:matrix(1, 0, 0, 1, -8.39974, 0);animation-play-state:paused" ></circle>
<circle cx="414.51083686621433" cy="702.4619232643856" r="64.34247915595961" fill="#f7f5fd" transform="matrix(1,0,0,1,-9.603246688842773,0)" style="transform:matrix(1, 0, 0, 1, -9.60325, 0);animation-play-state:paused" ></circle>
<circle cx="478.85331602217394" cy="723.2408728228389" r="32.66799142717278" fill="#f7f5fd" transform="matrix(1,0,0,1,-9.9945707321167,0)" style="transform:matrix(1, 0, 0, 1, -9.99457, 0);animation-play-state:paused" ></circle>
<circle cx="511.52130744934675" cy="714.7259140758435" r="58.07661776238338" fill="#f7f5fd" transform="matrix(1,0,0,1,-9.785361289978027,0)" style="transform:matrix(1, 0, 0, 1, -9.78536, 0);animation-play-state:paused" ></circle>
<circle cx="569.5979252117302" cy="716.9479177207597" r="67.90923266852033" fill="#f7f5fd" transform="matrix(1,0,0,1,-8.843363761901855,0)" style="transform:matrix(1, 0, 0, 1, -8.84336, 0);animation-play-state:paused" ></circle>
<circle cx="637.5071578802505" cy="729.7743868739811" r="40.34238441845766" fill="#f7f5fd" transform="matrix(1,0,0,1,-6.911342620849609,0)" style="transform:matrix(1, 0, 0, 1, -6.91134, 0);animation-play-state:paused" ></circle>
<circle cx="677.8495422987081" cy="729.4524244792724" r="60.68131513421324" fill="#f7f5fd" transform="matrix(1,0,0,1,-4.205990791320801,0)" style="transform:matrix(1, 0, 0, 1, -4.20599, 0);animation-play-state:paused" ></circle>
<circle cx="738.5308574329214" cy="734.3227452637946" r="79.861265926368" fill="#f7f5fd" transform="matrix(1,0,0,1,-1.8546714782714844,0)" style="transform:matrix(1, 0, 0, 1, -1.85467, 0);animation-play-state:paused" ></circle>
<circle cx="818.3921233592894" cy="734.6203640877152" r="42.92271965681225" fill="#f7f5fd" transform="matrix(1,0,0,1,-0.5121488571166992,0)" style="transform:matrix(1, 0, 0, 1, -0.512149, 0);animation-play-state:paused" ></circle>
<circle cx="861.3148430161016" cy="730.9438252674483" r="48.39478568327891" fill="#f7f5fd" transform="matrix(1,0,0,1,-0.022116661071777344,0)" style="transform:matrix(1, 0, 0, 1, -0.0221167, 0);animation-play-state:paused" ></circle>
<circle cx="909.7096286993805" cy="730.5423063471294" r="33.681013644897575" fill="#f7f5fd" transform="matrix(1,0,0,1,-0.14622078835964203,0)" style="transform:matrix(1, 0, 0, 1, -0.146221, 0);animation-play-state:paused" ></circle>
<circle cx="943.390642344278" cy="717.82774198474" r="73.60851729150178" fill="#f7f5fd" transform="matrix(1,0,0,1,-0.9663317203521729,0)" style="transform:matrix(1, 0, 0, 1, -0.966332, 0);animation-play-state:paused" ></circle>
<circle cx="1016.9991596357798" cy="702.6789159318524" r="90.78542207403557" fill="#f7f5fd" transform="matrix(1,0,0,1,-2.749058246612549,0)" style="transform:matrix(1, 0, 0, 1, -2.74906, 0);animation-play-state:paused" ></circle>
<circle cx="1107.7845817098155" cy="720.3200419026966" r="33.30102009142244" fill="#f7f5fd" transform="matrix(1,0,0,1,-5.399258613586426,0)" style="transform:matrix(1, 0, 0, 1, -5.39926, 0);animation-play-state:paused" ></circle>
<circle cx="1141.085601801238" cy="713.3626733779664" r="42.26346168808156" fill="#f7f5fd" transform="matrix(1,0,0,1,-7.868867874145508,0)" style="transform:matrix(1, 0, 0, 1, -7.86887, 0);animation-play-state:paused" ></circle>
<circle cx="1183.3490634893196" cy="693.8563599520239" r="68.01972633178022" fill="#f7f5fd" transform="matrix(1,0,0,1,-9.355055809020996,0)" style="transform:matrix(1, 0, 0, 1, -9.35506, 0);animation-play-state:paused" ></circle>
<circle cx="1251.3687898210999" cy="668.6581399313167" r="91.81145199792985" fill="#f7f5fd" transform="matrix(1,0,0,1,-9.949310302734375,0)" style="transform:matrix(1, 0, 0, 1, -9.94931, 0);animation-play-state:paused" ></circle>
<circle cx="1343.1802418190298" cy="696.8480532532024" r="45.78955256644064" fill="#f7f5fd" transform="matrix(1,0,0,1,-9.90817642211914,0)" style="transform:matrix(1, 0, 0, 1, -9.90818, 0);animation-play-state:paused" ></circle>
<circle cx="1388.9697943854703" cy="685.8155273241711" r="53.783715109013045" fill="#f7f5fd" transform="matrix(1,0,0,1,-9.20394515991211,0)" style="transform:matrix(1, 0, 0, 1, -9.20395, 0);animation-play-state:paused" ></circle>
<circle cx="1442.7535094944833" cy="660.1375866389628" r="73.85207168229071" fill="#f7f5fd" transform="matrix(1,0,0,1,-7.570505142211914,0)" style="transform:matrix(1, 0, 0, 1, -7.5705, 0);animation-play-state:paused" ></circle>
<circle cx="1516.605581176774" cy="644.238060451408" r="80.15922245298998" fill="#f7f5fd" transform="matrix(1,0,0,1,-4.999978542327881,0)" style="transform:matrix(1, 0, 0, 1, -4.99998, 0);animation-play-state:paused" ></circle>
<circle cx="1596.764803629764" cy="683.6450717256237" r="41.97470011183224" fill="#f7f5fd" transform="matrix(1,0,0,1,-2.4294638633728027,0)" style="transform:matrix(1, 0, 0, 1, -2.42946, 0);animation-play-state:paused" ></circle>
<circle cx="0" cy="753.2673406998633" r="38.9438827501139" fill="#ffffff" transform="matrix(1,0,0,1,0,0)" style="transform:matrix(1, 0, 0, 1, 0, 0);animation-play-state:paused" ></circle>
<circle cx="38.9438827501139" cy="697.3675200094723" r="90.09565332461793" fill="#ffffff" transform="matrix(1,0,0,1,-0.3967548906803131,0)" style="transform:matrix(1, 0, 0, 1, -0.396755, 0);animation-play-state:paused" ></circle>
<circle cx="129.0395360747318" cy="724.9366401304886" r="75.18548177670348" fill="#ffffff" transform="matrix(1,0,0,1,-1.8546782732009888,0)" style="transform:matrix(1, 0, 0, 1, -1.85468, 0);animation-play-state:paused" ></circle>
<circle cx="204.2250178514353" cy="754.1099368081158" r="52.094614647278675" fill="#ffffff" transform="matrix(1,0,0,1,-4.60075569152832,0)" style="transform:matrix(1, 0, 0, 1, -4.60076, 0);animation-play-state:paused" ></circle>
<circle cx="256.319632498714" cy="729.358997224582" r="88.35641280716885" fill="#ffffff" transform="matrix(1,0,0,1,-7.57051944732666,0)" style="transform:matrix(1, 0, 0, 1, -7.57052, 0);animation-play-state:paused" ></circle>
<circle cx="344.67604530588284" cy="752.1680609449061" r="72.31445481836694" fill="#ffffff" transform="matrix(1,0,0,1,-9.355050086975098,0)" style="transform:matrix(1, 0, 0, 1, -9.35505, 0);animation-play-state:paused" ></circle>
<circle cx="416.99050012424976" cy="772.6458132573503" r="49.87522993392726" fill="#ffffff" transform="matrix(1,0,0,1,-9.977882385253906,0)" style="transform:matrix(1, 0, 0, 1, -9.97788, 0);animation-play-state:paused" ></circle>
<circle cx="466.865730058177" cy="764.0082106991459" r="76.4932704504099" fill="#ffffff" transform="matrix(1,0,0,1,-9.78536319732666,0)" style="transform:matrix(1, 0, 0, 1, -9.78536, 0);animation-play-state:paused" ></circle>
<circle cx="543.3590005085869" cy="787.8277730201158" r="34.67855504900232" fill="#ffffff" transform="matrix(1,0,0,1,-8.632266998291016,0)" style="transform:matrix(1, 0, 0, 1, -8.63227, 0);animation-play-state:paused" ></circle>
<circle cx="578.0375555575891" cy="781.8078538232766" r="61.2909229888999" fill="#ffffff" transform="matrix(1,0,0,1,-6.180026531219482,0)" style="transform:matrix(1, 0, 0, 1, -6.18003, 0);animation-play-state:paused" ></circle>
<circle cx="639.328478546489" cy="782.389672043612" r="87.59210868708338" fill="#ffffff" transform="matrix(1,0,0,1,-3.088648796081543,0)" style="transform:matrix(1, 0, 0, 1, -3.08865, 0);animation-play-state:paused" ></circle>
<circle cx="726.9205872335724" cy="797.1823556357047" r="43.89771595330098" fill="#ffffff" transform="matrix(1,0,0,1,-0.9663257598876953,0)" style="transform:matrix(1, 0, 0, 1, -0.966326, 0);animation-play-state:paused" ></circle>
<circle cx="770.8183031868734" cy="799.7304669267462" r="61.20745549517181" fill="#ffffff" transform="matrix(1,0,0,1,-0.09182167053222656,0)" style="transform:matrix(1, 0, 0, 1, -0.0918217, 0);animation-play-state:paused" ></circle>
<circle cx="832.0257586820452" cy="794.0243368026995" r="59.73259083527007" fill="#ffffff" transform="matrix(1,0,0,1,-0.09182170033454895,0)" style="transform:matrix(1, 0, 0, 1, -0.0918217, 0);animation-play-state:paused" ></circle>
<circle cx="891.7583495173153" cy="788.5272073373316" r="59.33003577330727" fill="#ffffff" transform="matrix(1,0,0,1,-0.9663257002830505,0)" style="transform:matrix(1, 0, 0, 1, -0.966326, 0);animation-play-state:paused" ></circle>
<circle cx="951.0883852906226" cy="778.6996562463626" r="74.45704423406777" fill="#ffffff" transform="matrix(1,0,0,1,-3.0886495113372803,0)" style="transform:matrix(1, 0, 0, 1, -3.08865, 0);animation-play-state:paused" ></circle>
<circle cx="1025.5454295246902" cy="786.0014449476173" r="34.78638797845976" fill="#ffffff" transform="matrix(1,0,0,1,-6.180027961730957,0)" style="transform:matrix(1, 0, 0, 1, -6.18003, 0);animation-play-state:paused" ></circle>
<circle cx="1060.33181750315" cy="761.8432078519636" r="83.53639772543802" fill="#ffffff" transform="matrix(1,0,0,1,-8.632266998291016,0)" style="transform:matrix(1, 0, 0, 1, -8.63227, 0);animation-play-state:paused" ></circle>
<circle cx="1143.868215228588" cy="747.7052521894959" r="89.04354569690946" fill="#ffffff" transform="matrix(1,0,0,1,-9.785362243652344,0)" style="transform:matrix(1, 0, 0, 1, -9.78536, 0);animation-play-state:paused" ></circle>
<circle cx="1232.9117609254974" cy="747.4993417536481" r="72.27268505915406" fill="#ffffff" transform="matrix(1,0,0,1,-9.977882385253906,0)" style="transform:matrix(1, 0, 0, 1, -9.97788, 0);animation-play-state:paused" ></circle>
<circle cx="1305.1844459846516" cy="763.6221135338543" r="43.34050904183939" fill="#ffffff" transform="matrix(1,0,0,1,-9.355049133300781,0)" style="transform:matrix(1, 0, 0, 1, -9.35505, 0);animation-play-state:paused" ></circle>
<circle cx="1348.524955026491" cy="765.049688177556" r="38.530987122411354" fill="#ffffff" transform="matrix(1,0,0,1,-7.57051944732666,0)" style="transform:matrix(1, 0, 0, 1, -7.57052, 0);animation-play-state:paused" ></circle>
<circle cx="1387.0559421489022" cy="726.5780951543172" r="75.90593337675197" fill="#ffffff" transform="matrix(1,0,0,1,-4.600756645202637,0)" style="transform:matrix(1, 0, 0, 1, -4.60076, 0);animation-play-state:paused" ></circle>
<circle cx="1462.9618755256542" cy="765.0168615526043" r="32.216455887452206" fill="#ffffff" transform="matrix(1,0,0,1,-1.8546791076660156,0)" style="transform:matrix(1, 0, 0, 1, -1.85468, 0);animation-play-state:paused" ></circle>
<circle cx="1495.1783314131064" cy="703.4104553243802" r="85.0098331069199" fill="#ffffff" transform="matrix(1,0,0,1,-0.3967552185058594,0)" style="transform:matrix(1, 0, 0, 1, -0.396755, 0);animation-play-state:paused" ></circle>
<circle cx="1580.1881645200262" cy="731.3576953434776" r="54.089774881336744" fill="#ffffff" transform="matrix(1,0,0,1,0,0)" style="transform:matrix(1, 0, 0, 1, 0, 0);animation-play-state:paused" ></circle></g></svg>